<?xml version="1.0" standalone="no"?>
<!DOCTYPE svg PUBLIC "-//W3C//DTD SVG 1.1//EN" "http://www.w3.org/Graphics/SVG/1.1/DTD/svg11.dtd" >
<svg xmlns="http://www.w3.org/2000/svg">
<metadata>Generated by IcoMoon</metadata>
<defs>
<font id="iconfont" horiz-adv-x="1024">
<font-face units-per-em="1024" ascent="960" descent="-64" />
<missing-glyph horiz-adv-x="1024" />
<glyph unicode="&#x20;" horiz-adv-x="512" d="" />
<glyph unicode="&#xe900;" glyph-name="burger" d="M1024 640v-64h-1024v64zM0 256h1024v64h-1024z" />
<glyph unicode="&#xe901;" glyph-name="button-left" d="M512 832c-212.077 0-384-171.923-384-384s171.923-384 384-384c212.077 0 384 171.923 384 384v0c0 212.077-171.923 384-384 384v0zM512 80c-203.241 0-368 164.759-368 368s164.759 368 368 368c203.241 0 368-164.759 368-368v0c0-203.241-164.759-368-368-368v0zM581.6 564.64l-116.64-116.64 116.64-116.64-11.2-11.36-128 128 128 128z" />
<glyph unicode="&#xe902;" glyph-name="button-right" d="M512 832c-212.077 0-384-171.923-384-384s171.923-384 384-384c212.077 0 384 171.923 384 384v0c0 212.077-171.923 384-384 384v0zM512 80c-203.241 0-368 164.759-368 368s164.759 368 368 368c203.241 0 368-164.759 368-368v0c0-203.241-164.759-368-368-368v0zM469.6 576l128-128-128-128-11.2 11.36 116.64 116.64-116.64 116.64z" />
<glyph unicode="&#xe903;" glyph-name="checkbox-active" d="M0 960v-1024h1024v1024zM960 0h-896v896h896zM402.56 310.4l-146.56 147.2 45.44 44.8 146.56-146.56 274.56 274.56 45.44-44.8-274.56-275.2-45.44-44.8z" />
<glyph unicode="&#xe904;" glyph-name="checkbox-inactive" d="M960 896v-896h-896v896h896zM1024 960h-1024v-1024h1024v1024z" />
<glyph unicode="&#xe905;" glyph-name="chevron-circle" d="M512 960c-282.77 0-512-229.23-512-512s229.23-512 512-512c282.77 0 512 229.23 512 512v0c0 282.77-229.23 512-512 512v0zM706.56 402.773l-213.333-213.333c-11.579-11.565-27.568-18.717-45.227-18.717s-33.648 7.152-45.227 18.718l0.001-0.001c-11.669 11.531-18.895 27.535-18.895 45.227s7.227 33.696 18.889 45.221l168.113 168.113-168.107 168.107c-10.643 11.398-17.177 26.751-17.177 43.63 0 35.346 28.654 64 64 64 16.879 0 32.232-6.534 43.667-17.211l-0.037 0.034 213.333-213.333c11.669-11.531 18.895-27.535 18.895-45.227s-7.227-33.696-18.889-45.221l-0.006-0.006z" />
<glyph unicode="&#xe906;" glyph-name="chevron-down" d="M978.56 726.4l-466.56-466.56-466.56 466.56-45.44-44.8 466.56-467.2 45.44-44.8 45.44 44.8 466.56 467.2-45.44 44.8z" />
<glyph unicode="&#xe907;" glyph-name="chevron-left" d="M790.4 914.56l-44.8 45.44-512-512 512-512 44.8 45.44-466.56 466.56 466.56 466.56z" />
<glyph unicode="&#xe908;" glyph-name="chevron-right" d="M745.6 493.44l-467.2 466.56-44.8-45.44 466.56-466.56-466.56-466.56 44.8-45.44 467.2 466.56 44.8 45.44-44.8 45.44z" />
<glyph unicode="&#xe909;" glyph-name="chevron-up" d="M1024 214.4l-466.56 467.2-45.44 44.8-45.44-44.8-466.56-467.2 45.44-44.8 466.56 466.56 466.56-466.56 45.44 44.8z" />
<glyph unicode="&#xe90a;" glyph-name="close" d="M806.4 696.96l-45.44 45.44-248.96-248.96-248.96 248.96-45.44-45.44 248.96-248.96-248.96-248.96 45.44-45.44 248.96 248.96 248.96-248.96 45.44 45.44-248.96 248.96 248.96 248.96z" />
<glyph unicode="&#xe90b;" glyph-name="droplet" d="M512 609.12c-9.92-20.32-22.72-45.12-37.44-70.56s-35.040-55.84-50.24-78.4l-9.12-13.44c-4.48-6.72-7.84-11.36-10.56-16-5.098-6.897-9.839-14.712-13.849-22.95l-0.391-0.89c-8.581-16.727-13.61-36.494-13.61-57.436 0-0.564 0.004-1.127 0.011-1.689l-0.001 0.085c0-74.669 60.531-135.2 135.2-135.2s135.2 60.531 135.2 135.2v0c0.005 0.431 0.008 0.94 0.008 1.449 0 20.688-4.908 40.23-13.624 57.525l0.335-0.734c-4.337 9.922-9.206 18.439-14.858 26.359l0.298-0.439c-2.72 3.84-6.080 8.48-10.56 16l-8.96 13.12c-16 22.72-34.4 50.88-50.56 78.56s-27.52 49.12-37.28 69.44zM512 164.64c-101.584 0.091-183.909 82.416-184 183.991v0.009c-0.003 0.39-0.005 0.85-0.005 1.312 0 29.096 6.978 56.563 19.352 80.817l-0.467-1.009c5.553 11.457 11.519 21.265 18.288 30.442l-0.368-0.522 9.92 14.24 9.12 13.6c16 23.040 33.28 49.28 48 75.52 18.32 30.993 37.429 68.51 54.369 107.193l2.751 7.047 23.040 54.080 22.56-54.080c19.693-45.6 38.906-83.114 60.177-119.272l-2.737 5.032c16-26.080 33.12-52.48 48.8-75.68l8.96-13.28c4.32-6.56 7.36-10.88 9.92-14.4 6.454-8.865 12.525-18.933 17.707-29.516l0.533-1.204c11.707-22.815 18.568-49.778 18.568-78.343 0-0.583-0.003-1.165-0.009-1.746l0.001 0.089c0-101.797-82.523-184.32-184.32-184.32-0.056 0-0.113 0-0.169 0h0.009z" />
<glyph unicode="&#xe90c;" glyph-name="flower" d="M784 448c56.896 28.423 97.933 81.323 109.57 144.518l0.19 1.242 2.4 13.28-11.040 7.68c-32.222 22.665-72.276 36.223-115.496 36.223-23.498 0-46.061-4.008-67.041-11.377l1.417 0.434c6.856 19.457 10.817 41.894 10.817 65.255 0 43.241-13.571 83.313-36.686 116.188l0.429-0.643-7.52 11.2-13.28-2.4c-64.409-11.792-117.301-52.769-145.231-108.435l-0.529-1.165c-28.423 56.896-81.323 97.933-144.518 109.57l-1.242 0.19-13.28 2.24-7.68-11.040c-22.643-32.211-36.186-72.245-36.186-115.443 0-23.458 3.994-45.984 11.339-66.934l-0.433 1.417c-19.457 6.856-41.894 10.817-65.255 10.817-43.241 0-83.313-13.571-116.188-36.686l0.643 0.429-11.2-7.52 2.4-13.28c11.792-64.409 52.769-117.301 108.435-145.231l1.165-0.529c-56.896-28.423-97.933-81.323-109.57-144.518l-0.19-1.242-2.24-13.28 11.040-7.68c32.093-22.748 72.054-36.364 115.195-36.364 23.558 0 46.168 4.060 67.168 11.519l-1.403-0.434c-6.857-19.475-10.818-41.931-10.818-65.313 0-43.275 13.571-83.381 36.689-116.294l-0.43 0.646 7.68-11.040 13.28 2.4c64.345 11.84 117.171 52.805 145.071 108.435l0.529 1.165c28.423-56.896 81.323-97.933 144.518-109.57l1.242-0.19 13.28-2.4 7.68 11.040c22.644 32.245 36.188 72.314 36.188 115.546 0 23.479-3.995 46.024-11.341 66.994l0.433-1.42c19.566-7.001 42.14-11.047 65.658-11.047 43.119 0 83.060 13.601 115.769 36.748l-0.627-0.421 11.040 7.68-2.4 13.28c-11.757 64.381-52.674 117.265-108.278 145.231l-1.162 0.529zM174.88 587.68c22.871 13.361 50.353 21.25 79.677 21.25 44.335 0 84.459-18.032 113.436-47.163l92.647-92.647h-130.56c-0.196-0.001-0.427-0.001-0.659-0.001-73.628 0-135.64 49.733-154.277 117.438l-0.264 1.123zM174.88 308.32c18.901 68.829 80.913 118.561 154.541 118.561 0.232 0 0.464 0 0.695-0.001h131.004l-93.12-92.64c-28.985-29.137-69.108-47.17-113.443-47.17-29.324 0-56.806 7.889-80.438 21.66l0.762-0.41zM490.88 266.080c0.001-0.196 0.001-0.427 0.001-0.659 0-73.628-49.733-135.64-117.438-154.277l-1.123-0.264c-13.361 22.871-21.25 50.353-21.25 79.677 0 44.335 18.032 84.459 47.163 113.436l92.647 92.647zM490.88 498.88l-92.64 93.12c-29.242 29.001-47.346 69.195-47.346 113.618 0 29.448 7.955 57.038 21.834 80.738l-0.409-0.755c68.829-18.901 118.561-80.913 118.561-154.541 0-0.232 0-0.464-0.001-0.695v0.036zM849.12 587.68c-18.901-68.829-80.913-118.561-154.541-118.561-0.232 0-0.464 0-0.695 0.001h-131.004l93.12 92.64c29.087 29.024 69.236 46.972 113.577 46.972 29.255 0 56.686-7.813 80.319-21.465l-0.776 0.413zM533.12 498.88v131.040c-0.001 0.196-0.001 0.427-0.001 0.659 0 73.628 49.733 135.64 117.438 154.277l1.123 0.264c13.361-22.871 21.25-50.353 21.25-79.677 0-44.335-18.032-84.459-47.163-113.436l-92.647-92.647zM651.68 110.88c-68.829 18.901-118.561 80.913-118.561 154.541 0 0.232 0 0.464 0.001 0.695v-0.036 131.040l92.64-93.12c29.024-29.087 46.972-69.236 46.972-113.577 0-29.255-7.813-56.686-21.465-80.319l0.413 0.776zM655.52 334.88l-92.64 92.64h131.040c0.196 0.001 0.427 0.001 0.659 0.001 73.628 0 135.64-49.733 154.277-117.438l0.264-1.123c-22.968-13.506-50.594-21.484-80.082-21.484-44.133 0-84.093 17.869-113.040 46.766l0.002-0.002z" />
<glyph unicode="&#xe90d;" glyph-name="logo-facebook" d="M403.2-64v467.2h-157.013v181.76h157.013v134.4c0 155.307 95.147 240.64 234.24 240.64 2.569 0.020 5.606 0.031 8.645 0.031 46.409 0 92.201-2.646 137.231-7.796l-5.503 0.512v-163.413h-95.147c-75.52 0-90.027-36.267-90.027-88.747v-115.627h180.053l-23.467-181.76h-157.867v-467.2z" />
<glyph unicode="&#xe90e;" glyph-name="logo-linkedin" d="M250.027 817.067c-1.649-66.113-55.635-119.077-121.991-119.077-1.063 0-2.122 0.014-3.178 0.041l0.156-0.003c-0.9-0.024-1.96-0.037-3.022-0.037-66.356 0-120.342 52.965-121.988 118.925l-0.003 0.153c1.649 66.113 55.635 119.077 121.991 119.077 1.063 0 2.122-0.014 3.178-0.041l-0.156 0.003c0.9 0.024 1.96 0.037 3.022 0.037 66.356 0 120.342-52.965 121.988-118.925l0.003-0.153zM14.933-40.107h220.16v656.64h-220.16zM768 633.173c-80.918-2-151.595-44.074-193.154-107.055l-0.553-0.892v91.307h-221.013v-656.64h220.16v366.933c-0.001 0.159-0.001 0.348-0.001 0.537 0 69.314 52.976 126.256 120.648 132.543l0.526 0.039c72.533 0 109.227-66.133 109.227-133.12v-366.933h220.16v366.933c0 171.52-76.8 306.347-256 306.347z" />
<glyph unicode="&#xe90f;" glyph-name="logo-pinterest" d="M1024 461.227c0.006-0.9 0.009-1.965 0.009-3.031 0-286.028-229.944-518.349-515.059-522.192l-0.363-0.004c-1.308-0.012-2.854-0.018-4.402-0.018-51.134 0-100.593 7.173-147.425 20.568l3.775-0.924c19.467 31.973 36.914 68.9 50.387 107.686l1.24 4.101c6.4 26.027 38.4 144.213 38.4 144.213 28.919-39.989 75.433-65.707 127.954-65.707 0.016 0 0.032 0 0.048 0h-0.003c167.68 0 276.907 157.44 276.907 360.96 0 157.867-128 302.080-328.107 302.080-244.907 0-367.36-177.067-367.36-328.107 0-91.733 32.427-170.667 103.253-203.52 12.8-6.4 19.2 0 25.6 13.227 6.8 11.261 11.375 24.597 12.769 38.866l0.031 0.387c6.4 13.227 0 13.227-6.4 26.027-20.064 27.629-32.097 62.223-32.097 99.627 0 2.025 0.035 4.042 0.105 6.051l-0.008-0.292c-0.036 1.553-0.056 3.383-0.056 5.217 0 134.787 109.266 244.053 244.053 244.053 2.42 0 4.832-0.035 7.235-0.105l-0.353 0.008c135.253 0 213.333-85.333 213.333-203.52 0-157.44-64.427-282.027-160.853-282.027-2.364-0.249-5.106-0.39-7.882-0.39-44.065 0-79.787 35.722-79.787 79.787 0 6.804 0.852 13.41 2.454 19.715l-0.119-0.552c12.8 65.707 45.227 137.813 45.227 183.467 0.332 2.566 0.521 5.534 0.521 8.547 0 38.881-31.519 70.4-70.4 70.4-0.483 0-0.965-0.005-1.446-0.015l0.072 0.001c-51.2 0-96.427-58.88-96.427-137.813-0.027-1.173-0.043-2.555-0.043-3.94 0-29.672 7.11-57.683 19.719-82.423l-0.477 1.030s-51.2-249.173-64.427-288.853c-4.242-29.599-6.664-63.782-6.664-98.53 0-6.912 0.096-13.801 0.286-20.667l-0.022 1.011c-182.642 83.753-307.214 265.012-307.214 475.367 0 1.329 0.005 2.657 0.015 3.984l-0.001-0.204c-0.007 1.027-0.011 2.242-0.011 3.458 0 285.793 229.755 517.924 514.635 521.765l0.363 0.004c283.307 0 515.413-236.373 509.013-498.773z" />
<glyph unicode="&#xe910;" glyph-name="logo-youtube" d="M1013.76 652.8c-5.818 38.777-20.956 73.233-43.055 102.074l0.388-0.527c-26.428 26.149-62.704 42.389-102.773 42.666h-0.053c-142.933 11.093-356.267 11.093-356.267 11.093v0s-213.333 0-357.973-10.24c-40.123-0.277-76.399-16.518-102.84-42.679l0.013 0.013c-21.234-28.656-35.828-63.454-40.838-101.277l-0.122-1.123c-6.054-49.322-9.761-106.934-10.236-165.317l-0.004-0.656v-77.653c0.491-58.903 4.197-116.365 10.955-172.89l-0.715 7.343c5.818-38.777 20.956-73.233 43.055-102.074l-0.388 0.527c30.112-26.27 69.681-42.382 113.007-42.666h0.060c81.92-7.68 348.16-10.24 348.16-10.24s213.333 0 358.4 10.667c40.123 0.277 76.399 16.518 102.84 42.679l-0.013-0.013c21.71 28.313 36.848 62.769 42.516 100.329l0.151 1.218c3.952 41.459 6.205 89.641 6.205 138.349 0 9.413-0.084 18.807-0.252 28.18l0.020-1.409v77.653c-0.479 59.039-4.186 116.651-10.955 173.323l0.715-7.35zM406.187 315.307v287.573l276.48-144.213z" />
<glyph unicode="&#xe911;" glyph-name="pagination-active" d="M768 448c0-141.385-114.615-256-256-256s-256 114.615-256 256c0 141.385 114.615 256 256 256s256-114.615 256-256z" />
<glyph unicode="&#xe912;" glyph-name="pagination-inactive" d="M512 640c106.039 0 192-85.961 192-192s-85.961-192-192-192c-106.039 0-192 85.961-192 192v0c0 106.039 85.961 192 192 192v0zM512 704c-141.385 0-256-114.615-256-256s114.615-256 256-256c141.385 0 256 114.615 256 256v0c0 141.385-114.615 256-256 256v0z" />
<glyph unicode="&#xe913;" glyph-name="plant" d="M860.8 472c2.88-89.44-24-163.68-80-220.64-44.502-43.899-101.634-75.1-165.455-87.661l-2.065-0.339h-1.44c-0.429-0.030-0.929-0.047-1.433-0.047-5.593 0-10.7 2.080-14.591 5.508l0.024-0.021c-4.015 3.568-6.611 8.657-6.878 14.354l-0.002 0.046c-0.026 0.384-0.041 0.833-0.041 1.285 0 5.333 2.087 10.179 5.49 13.764l-0.008-0.009c3.568 3.723 8.414 6.197 13.831 6.713l0.089 0.007c34.56 7.36 204.48 53.12 209.12 246.4-59.84-1.12-212-24.16-252.64-221.76v-144c-0.983-11.018-10.17-19.59-21.36-19.59s-20.377 8.572-21.354 19.507l-0.006 0.082v146.4c-0.081 0.457-0.128 0.983-0.128 1.52s0.046 1.063 0.135 1.574l-0.008-0.054c53.92 264.8 291.68 259.2 318.56 257.76 11.141-0.521 19.997-9.6 20.16-20.784v-0.016zM492.8 235.52c-52.48 276.48-307.84 257.12-310.56 256.8v0c-10.69-0.849-19.061-9.665-19.2-20.466v-0.014c-3.040-89.28 23.84-163.52 78.88-220.64 43.401-43.626 99.337-74.742 161.951-87.492l2.049-0.348h1.92c0.119-0.002 0.259-0.004 0.4-0.004 11.49 0 20.804 9.314 20.804 20.804 0 11.349-9.088 20.575-20.383 20.8h-0.021c-8.64 1.6-200.64 38.4-205.28 246.24 58.72-0.96 208-23.84 248.32-221.76v-144c0.975-10.847 10.022-19.283 21.040-19.283s20.065 8.437 21.034 19.202l0.006 0.082v145.12c0.032 0.4 0.050 0.867 0.050 1.337 0 1.283-0.135 2.534-0.391 3.74l0.021-0.117zM529.28 404.32c3.675-2.702 8.289-4.325 13.283-4.325 7.187 0 13.59 3.361 17.721 8.597l0.036 0.048 0.96 1.44c163.52 240-32 409.76-40.64 417.28-3.519 2.721-7.941 4.434-12.754 4.638l-0.046 0.002h-3.52c-4.756-0.367-9.043-2.115-12.531-4.839l0.051 0.039c-2.080-1.6-208-172.48-40-417.6 4.139-5.215 10.477-8.529 17.589-8.529 5.003 0 9.623 1.64 13.351 4.412l-0.060-0.043c5.35 3.946 8.782 10.224 8.782 17.305 0 4.266-1.246 8.241-3.393 11.58l0.051-0.085c-122.56 179.68-18.72 309.28 18.24 346.72 43.52-43.36 139.2-169.28 18.4-346.56-2.519-3.47-4.030-7.815-4.030-12.512 0-7.239 3.588-13.641 9.082-17.523l0.067-0.045z" />
<glyph unicode="&#xe914;" glyph-name="pointer-down" d="M320 576l192-256 192 256h-384z" />
<glyph unicode="&#xe915;" glyph-name="pointer-up" d="M704 320l-192 256-192-256h384z" />
<glyph unicode="&#xe916;" glyph-name="radio-active" d="M768 448c0-141.385-114.615-256-256-256s-256 114.615-256 256c0 141.385 114.615 256 256 256v0c141.385 0 256-114.615 256-256v0zM1024 448c0-282.77-229.23-512-512-512s-512 229.23-512 512c0 282.77 229.23 512 512 512v0c282.77 0 512-229.23 512-512v0zM960 448c0 247.424-200.576 448-448 448s-448-200.576-448-448c0-247.424 200.576-448 448-448v0c247.424 0 448 200.576 448 448v0z" />
<glyph unicode="&#xe917;" glyph-name="radio-inactive" d="M512 896c247.424 0 448-200.576 448-448s-200.576-448-448-448c-247.424 0-448 200.576-448 448v0c0 247.424 200.576 448 448 448v0zM512 960c-282.77 0-512-229.23-512-512s229.23-512 512-512c282.77 0 512 229.23 512 512v0c0 282.77-229.23 512-512 512v0z" />
<glyph unicode="&#xe918;" glyph-name="scroll" d="M512 917.333c141.385 0 256-114.615 256-256v0-426.667c0-141.385-114.615-256-256-256s-256 114.615-256 256v0 426.667c0 141.385 114.615 256 256 256v0zM512 960c-164.949 0-298.667-133.718-298.667-298.667v0-426.667c0-164.949 133.718-298.667 298.667-298.667s298.667 133.718 298.667 298.667v0 426.667c0 164.949-133.718 298.667-298.667 298.667v0zM512 704c-23.564 0-42.667-19.103-42.667-42.667s19.103-42.667 42.667-42.667c23.564 0 42.667 19.103 42.667 42.667v0c0 23.564-19.103 42.667-42.667 42.667v0z" />
<glyph unicode="&#xe919;" glyph-name="search" d="M1024-18.56l-346.88 346.88c56.402 66.411 90.703 153.128 90.703 247.857 0 212.077-171.923 384-384 384s-384-171.923-384-384c0-212.077 171.923-384 384-384 94.728 0 181.445 34.301 248.408 91.16l-0.551-0.457 346.88-346.88zM64 576c0 176.731 143.269 320 320 320s320-143.269 320-320c0-176.731-143.269-320-320-320v0c-176.731 0-320 143.269-320 320v0z" />
<glyph unicode="&#xe91a;" glyph-name="waves" d="M104.32 683.68c0 10.692 8.668 19.36 19.36 19.36v0c56 0 84.8-26.24 110.24-49.44 23.040-21.12 42.88-39.2 84-39.2s60.96 18.080 84 39.2 54.080 49.44 110.080 49.44 84.8-26.24 110.080-49.44 43.040-39.2 84-39.2 60.8 18.080 83.84 39.2 54.24 49.44 110.24 49.44c9.994-0.935 17.755-9.281 17.755-19.44s-7.761-18.505-17.677-19.434l-0.078-0.006c-40.96 0-60.96-18.080-84-39.2s-53.92-48.96-109.92-48.96-84.8 26.24-110.24 49.44c-23.040 21.12-42.88 39.2-83.84 39.2s-60.96-18.080-84.16-39.2-54.080-49.44-110.080-49.44-84.8 26.24-110.24 49.44-43.040 39.2-84 39.2c-10.546 0.086-19.093 8.522-19.36 19.015v0.025zM900.32 512c-56 0-84.8-26.24-110.24-49.28s-42.88-39.36-83.84-39.36-60.96 18.24-84 39.36-54.080 49.28-110.24 49.28-84.96-26.24-110.24-49.28-43.040-39.36-84-39.36-60.96 18.24-84 39.36c-25.76 22.72-54.080 49.28-110.080 49.28-10.692 0-19.36-8.668-19.36-19.36s8.668-19.36 19.36-19.36v0c40.96 0 60.96-18.24 84-39.36s54.080-49.92 110.24-49.92 84.8 26.24 110.080 49.28 43.040 39.36 84.16 39.36 60.8-18.24 83.84-39.36c25.44-22.72 54.080-49.28 110.24-49.28s84.8 26.24 110.080 49.28 43.040 39.36 84 39.36c10.692 0 19.36 8.668 19.36 19.36s-8.668 19.36-19.36 19.36v0zM900.32 320c-56 0-84.8-26.24-110.24-49.44s-42.88-39.2-83.84-39.2-60.96 18.24-84 39.2-54.080 49.44-110.24 49.44-84.96-26.24-110.24-49.44-43.040-39.2-84-39.2-60.96 18.24-84 39.2c-25.76 23.68-54.080 49.44-110.080 49.44-9.994-0.935-17.755-9.281-17.755-19.44s7.761-18.505 17.677-19.434l0.078-0.006c40.96 0 60.96-18.080 84-39.2s54.080-49.44 110.24-49.44 84.8 26.24 110.080 49.44 43.040 39.68 84 39.68 60.8-18.080 83.84-39.2c25.44-23.2 54.080-49.44 110.24-49.44s84.8 26.24 110.080 49.44 43.040 39.2 84 39.2c9.994 0.935 17.755 9.281 17.755 19.44s-7.761 18.505-17.677 19.434l-0.078 0.006z" />
<glyph unicode="&#xe91b;" glyph-name="tick" horiz-adv-x="1081" d="M1081.452 922.149l-55.424 37.851-626.566-913.151-348.092 406.22-51.369-43.934 405.545-473.135 675.908 986.149z" />
<glyph unicode="&#xe91c;" glyph-name="logo-twitter" horiz-adv-x="1248" d="M1117.044 804.061c44.979 32.683 78.093 79.291 93.153 133.419l0.411 1.729-155.939-68.093c-47.040 52.526-115.066 85.425-190.777 85.425-140.39 0-254.359-113.123-255.728-253.19l-0.001-0.13c0.206-21.324 3.038-41.894 8.187-61.525l-0.39 1.748c-215.641 11.952-404.363 117.782-527.407 276.961l-1.226 1.65s-133.068-213.117 75.371-352.942c-43.508 3.289-83.49 15.605-118.996 35.071l1.522-0.764c-0.041-1.738-0.064-3.786-0.064-5.84 0-127.881 89.844-234.777 209.855-261.012l1.767-0.324h-110.197s18.713-151.261 220.394-180.889c-55.098-93.044-293.685-122.672-366.977-99.801 75.89-77.97 240.666-119.553 371.655-119.553s705.884 30.148 754.225 764.102l121.632 137.226z" />
</font>
</defs>
</svg>
